<?xml version="1.0" encoding="UTF-8"?><svg id="Outline" xmlns="http://www.w3.org/2000/svg" viewBox="0 0 64 64"><path d="M52,29c0-1.65-1.35-3-3-3h-3V15c0-2.16-1.39-3.99-3.32-4.69,.2-.4,.32-.84,.32-1.31v-3c0-1.65-1.35-3-3-3H24c-1.65,0-3,1.35-3,3v3c0,.47,.12,.91,.32,1.31-1.93,.7-3.32,2.52-3.32,4.69v11h-3c-1.65,0-3,1.35-3,3,0,1.3,.84,2.4,2,2.82v11.18c0,1.65,1.35,3,3,3h9.8l-.91,5.01c-1.6,.06-2.89,1.37-2.89,2.99v1h-3c-1.65,0-3,1.35-3,3v2c0,.55,.45,1,1,1h28c.55,0,1-.45,1-1v-2c0-1.65-1.35-3-3-3h-3v-1c0-1.62-1.29-2.93-2.89-2.99l-.91-5.01h9.8c1.65,0,3-1.35,3-3v-11.18c1.16-.41,2-1.51,2-2.82ZM23,6c0-.55,.45-1,1-1h16c.55,0,1,.45,1,1v3c0,.55-.45,1-1,1H24c-.55,0-1-.45-1-1v-3Zm0,6h18c1.65,0,3,1.35,3,3v11.18c-1.16,.41-2,1.51-2,2.82s.84,2.4,2,2.82v3.21c-.84-.63-1.87-1.03-3-1.03H23c-1.13,0-2.16,.39-3,1.03v-3.21c1.16-.41,2-1.51,2-2.82s-.84-2.4-2-2.82V15c0-1.65,1.35-3,3-3Zm20.83,26H20.17c.41-1.16,1.53-2,2.83-2h18c1.3,0,2.42,.84,2.83,2ZM15,28h4c.55,0,1,.45,1,1s-.45,1-1,1h-4c-.55,0-1-.45-1-1s.45-1,1-1Zm1,15v-11h2v12h-1c-.55,0-1-.45-1-1Zm4-3h24v4H20v-4Zm25,18v1H19v-1c0-.55,.45-1,1-1h24c.55,0,1,.45,1,1Zm-6-4v1h-14v-1c0-.55,.45-1,1-1h12c.55,0,1,.45,1,1Zm-2.93-3h-8.14l.91-5h6.33l.91,5Zm11.93-8c0,.55-.45,1-1,1h-1v-12h2v11Zm1-13h-4c-.55,0-1-.45-1-1s.45-1,1-1h4c.55,0,1,.45,1,1s-.45,1-1,1Z"/><path d="M26,30c.55,0,1-.45,1-1v-12c0-.55-.45-1-1-1s-1,.45-1,1v12c0,.55,.45,1,1,1Z"/><path d="M30,30c.55,0,1-.45,1-1v-12c0-.55-.45-1-1-1s-1,.45-1,1v12c0,.55,.45,1,1,1Z"/><path d="M34,30c.55,0,1-.45,1-1v-12c0-.55-.45-1-1-1s-1,.45-1,1v12c0,.55,.45,1,1,1Z"/><path d="M38,30c.55,0,1-.45,1-1v-12c0-.55-.45-1-1-1s-1,.45-1,1v12c0,.55,.45,1,1,1Z"/></svg>