<?xml version="1.0" encoding="UTF-8"?><svg id="Outline" xmlns="http://www.w3.org/2000/svg" viewBox="0 0 64 64"><path d="M41,7v-3c0-.55-.45-1-1-1s-1,.45-1,1v3h-2v-3c0-.55-.45-1-1-1s-1,.45-1,1v3h-2v-3c0-.55-.45-1-1-1s-1,.45-1,1v3h-2v-3c0-.55-.45-1-1-1s-1,.45-1,1v3h-2v-3c0-.55-.45-1-1-1s-1,.45-1,1v3c-1.1,0-2,.9-2,2v3c0,7.87,.59,13.96,1.7,17.6,.86,2.81,1.3,5.9,1.3,9.17v2.23c0,3.35,2.07,6.22,5,7.41v1.59c0,1.3,.84,2.4,2,2.82v7.18c0,.55,.45,1,1,1s1-.45,1-1v-7.18c1.16-.41,2-1.51,2-2.82v-1.59c2.93-1.19,5-4.06,5-7.41v-2.23c0-3.28,.44-6.36,1.3-9.17,1.12-3.64,1.7-9.73,1.7-17.6v-3c0-1.1-.9-2-2-2Zm-18,2h18v2H23v-2Zm17.75,4c-1.24,4.5-5.16,6.54-8.75,6.54-3.58,0-7.51-2.04-8.75-6.54h17.49Zm-7.75,37c0,.55-.45,1-1,1s-1-.45-1-1v-1.07c.33,.04,.66,.07,1,.07s.67-.03,1-.07v1.07Zm6.38-20.99c-.92,3-1.38,6.28-1.38,9.76v2.23c0,3.31-2.69,6-6,6s-6-2.69-6-6v-2.23c0-3.48-.47-6.76-1.38-9.76-.59-1.93-1.27-5.47-1.52-11.79,2.19,2.95,5.66,4.32,8.9,4.32,3.24,0,6.71-1.37,8.9-4.32-.25,6.32-.93,9.86-1.52,11.79Z"/><path d="M32,33c-1.65,0-3,1.35-3,3v4c0,1.65,1.35,3,3,3s3-1.35,3-3v-4c0-1.65-1.35-3-3-3Zm-1,3c0-.55,.45-1,1-1s1,.45,1,1v1h-2v-1Zm1,5c-.55,0-1-.45-1-1v-1h2v1c0,.55-.45,1-1,1Z"/></svg>