<?xml version="1.0" encoding="UTF-8"?><svg id="Outline" xmlns="http://www.w3.org/2000/svg" viewBox="0 0 64 64"><path d="M60.26,29.81l-6.77-19.56c1.61-1.02,2.99-2.35,4.04-3.96,.3-.46,.17-1.08-.29-1.38-.46-.3-1.08-.17-1.38,.29-.8,1.24-1.85,2.27-3.04,3.1l-.19-.55c-.28-.8-.88-1.46-1.66-1.8s-1.67-.35-2.45,0l-1.89,.82c-1.21,.52-1.92,1.77-1.83,3.03L4.23,27.28c-.5,.21-.88,.61-1.08,1.11-.2,.5-.19,1.06,.02,1.55l.41,.95c.76,1.76,2.16,3.12,3.94,3.83,.86,.34,1.76,.51,2.66,.51,.97,0,1.93-.2,2.84-.59l24.62-10.61c.35-.15,.58-.48,.6-.86l.23-3.99,8.2-3.54,5.62,16.56c.14,.42,.15,.88,.01,1.31l-5.39,16.95c-.56,1.77-.38,3.64,.51,5.28,.89,1.63,2.37,2.79,4.17,3.28h0c.58,.16,1.17,.23,1.75,.23,1.41,0,2.79-.44,3.96-1.29,1.65-1.2,2.66-3.07,2.77-5.11l.91-17.98c.09-1.72-.15-3.42-.72-5.05Zm-23.16-12.22c-.35,.15-.58,.48-.6,.86l-.23,3.99-24.05,10.37c-1.27,.55-2.68,.57-3.97,.06-1.29-.51-2.3-1.49-2.85-2.77l-.41-.95s.02-.04,.02-.04L45.34,11.73l.68,2.02-8.92,3.85Zm21.88,17.17l-.91,17.98c-.07,1.44-.78,2.75-1.95,3.59s-2.63,1.12-4.02,.75c-1.26-.34-2.3-1.16-2.93-2.3-.63-1.15-.75-2.46-.36-3.71l5.39-16.95c.26-.83,.25-1.73-.02-2.55l-7.35-21.66c-.18-.52,.08-1.1,.59-1.32l1.89-.82c.27-.12,.58-.12,.85,0s.48,.34,.58,.62l7.64,22.07c.48,1.39,.69,2.83,.61,4.3Z"/><path d="M56.26,51.05c-.66-1.52-2.43-2.22-3.94-1.57-.74,.32-1.3,.9-1.6,1.65-.3,.75-.28,1.56,.03,2.29,.32,.74,.9,1.3,1.65,1.6,.36,.14,.73,.21,1.11,.21,.4,0,.81-.08,1.19-.25,1.52-.66,2.22-2.42,1.57-3.94,0,0,0,0,0,0Zm-2.36,2.11c-.24,.11-.52,.11-.77,.01-.25-.1-.44-.29-.55-.53-.11-.25-.11-.52-.01-.76s.29-.44,.53-.55c.13-.06,.26-.08,.39-.08,.39,0,.76,.23,.92,.6,.22,.51-.02,1.1-.52,1.32Z"/></svg>