<?xml version="1.0" encoding="UTF-8"?><svg id="Outline" xmlns="http://www.w3.org/2000/svg" viewBox="0 0 64 64"><path d="M55.02,16.22c.65-.76,1.04-1.74,1.04-2.76,0-1.81-1.13-3.4-2.81-4.01-.85-1.5-2.45-2.45-4.19-2.45-.99,0-1.93,.3-2.73,.85-.8-.55-1.74-.85-2.73-.85-1.74,0-3.34,.95-4.19,2.45-1.29,.47-2.26,1.52-2.63,2.81-5.33,.06-10.79,.02-16.26-.12-4.68-.1-9.07,1.61-12.4,4.86-3.3,3.22-5.11,7.53-5.11,12.13v5.74c0,2.2,.45,4.33,1.25,6.31-.79,.96-1.25,2.17-1.25,3.44,0,2.35,1.5,4.4,3.7,5.13,1.07,1.99,3.15,3.25,5.42,3.25,1.35,0,2.63-.43,3.69-1.23,1.06,.8,2.34,1.23,3.69,1.23,.3,0,.6-.03,.91-.08,.79,.56,1.76,.88,2.81,.79,.64,1.94,2.43,3.29,4.55,3.29,.79,0,1.56-.2,2.25-.57,.64,.38,1.36,.57,2.11,.57,2.33,0,4.23-1.88,4.27-4.2,.37-.29,.69-.64,.94-1.03,2.05,.02,4.09,.04,6.13,.09,.14,0,.29,0,.43,0,4.51,0,8.74-1.72,11.97-4.87,3.3-3.22,5.11-7.53,5.11-12.13v-5.74c0-5.05-2.17-9.69-5.98-12.91Zm-14.68-4.96c.3-.07,.56-.28,.68-.57,.45-1.02,1.46-1.68,2.58-1.68,.76,0,1.48,.3,2.01,.85,.19,.19,.45,.3,.72,.3s.53-.11,.71-.3c.54-.55,1.25-.85,2.01-.85,1.11,0,2.12,.66,2.58,1.68,.13,.29,.38,.5,.68,.57,1.03,.25,1.74,1.15,1.74,2.2,0,.81-.45,1.57-1.17,1.97-.36,.2-.55,.6-.5,1,0,0,.01,.1,.01,.1,0,.07,.02,.13,.02,.2,0,1.25-1.02,2.27-2.27,2.27-.66,0-1.15-.29-1.45-.54-.19-.15-.41-.23-.64-.23-.21,0-.42,.07-.6,.2-.5,.37-1.08,.57-1.68,.57-1.46,0-2.66-1.11-2.79-2.57-.03-.31-.2-.59-.46-.76-.26-.17-.59-.2-.88-.1-.28,.1-.53,.15-.78,.15-1.25,0-2.27-1.02-2.27-2.27,0-1.05,.72-1.96,1.74-2.2ZM15.09,49.74c-.79,.81-1.85,1.26-2.97,1.26-1.65,0-3.14-.98-3.8-2.49-.13-.29-.38-.5-.69-.57-1.55-.37-2.63-1.73-2.63-3.32,0-1.23,.67-2.37,1.76-2.98,.35-.2,.54-.58,.5-.97l-.03-.22c-.01-.08-.03-.17-.03-.25,0-1.89,1.54-3.43,3.43-3.43,1.01,0,1.75,.44,2.19,.81,.36,.3,.87,.31,1.24,.03,.74-.55,1.6-.84,2.48-.84,2.16,0,3.94,1.64,4.12,3.81,.03,.31,.2,.59,.46,.76,.27,.17,.59,.2,.88,.09,1.81-.67,3.49,.19,4.22,1.63-.21-.03-.42-.05-.64-.05-1.74,0-3.34,.95-4.19,2.45-1.68,.61-2.81,2.19-2.81,4.01,0,.53,.11,1.02,.29,1.49-.9-.13-1.71-.54-2.36-1.2-.38-.38-1.05-.38-1.43,0Zm6.85-11.74c-.65-1.22-1.68-2.17-2.94-2.71v-8.29c0-.55,.45-1,1-1h24c.55,0,1,.45,1,1v10c0,.55-.45,1-1,1H21.94Zm12.94,13.42c-.36,.2-.55,.6-.5,1,0,0,.01,.1,.01,.1,0,.07,.02,.13,.02,.2,0,1.25-1.02,2.27-2.27,2.27-.66,0-1.15-.29-1.45-.54-.19-.15-.41-.23-.64-.23-.21,0-.42,.07-.6,.2-.5,.37-1.08,.57-1.68,.57-1.46,0-2.66-1.11-2.79-2.57-.03-.31-.2-.59-.46-.76s-.59-.2-.88-.1c-.28,.1-.53,.15-.78,.15-1.25,0-2.27-1.02-2.27-2.27,0-1.05,.72-1.96,1.74-2.2,.3-.07,.56-.28,.68-.57,.45-1.02,1.46-1.68,2.58-1.68,.76,0,1.48,.3,2.01,.85,.19,.19,.45,.3,.72,.3s.53-.11,.71-.3c.54-.55,1.25-.85,2.01-.85,1.11,0,2.12,.66,2.58,1.68,.13,.29,.38,.5,.68,.57,1.03,.25,1.74,1.15,1.74,2.2,0,.81-.45,1.57-1.17,1.97Zm24.12-16.55c0,4.06-1.6,7.86-4.51,10.7-2.94,2.87-6.82,4.38-10.96,4.29-1.83-.05-3.66-.07-5.5-.09,0-.11,.02-.21,.02-.32,0-1.82-1.13-3.4-2.81-4.01-.85-1.5-2.45-2.45-4.19-2.45-.91,0-1.77,.26-2.52,.73-.27-1.58-1.21-2.92-2.53-3.73h18c1.65,0,3-1.35,3-3v-10c0-1.65-1.35-3-3-3H20c-1.65,0-3,1.35-3,3v7.8c-.15-.01-.3-.04-.45-.04-1.07,0-2.12,.28-3.05,.83-.86-.54-1.85-.83-2.86-.83-2.41,0-4.46,1.59-5.17,3.77-.3-1.18-.47-2.4-.47-3.66v-5.74c0-4.06,1.6-7.86,4.51-10.7,2.94-2.87,6.81-4.39,10.96-4.29,5.45,.13,10.9,.17,16.22,.12,.4,2.09,2.32,3.65,4.54,3.45,.64,1.94,2.43,3.29,4.55,3.29,.79,0,1.56-.2,2.25-.57,.64,.38,1.36,.57,2.11,.57,1.86,0,3.43-1.21,4.02-2.87,3.09,2.82,4.84,6.75,4.84,11v5.74Z"/></svg>